<svg width="114" height="22" viewBox="0 0 114 22" fill="none" xmlns="http://www.w3.org/2000/svg">
<g clip-path="url(#clip0_5657_399)">
<path d="M8.52144 10.4763C7.89758 11.1126 6.99722 11.4307 5.79912 11.4307H3.75738V3.23763H5.64315C6.86253 3.23763 7.79833 3.56987 8.45764 4.22729C9.11695 4.88472 9.45015 5.9168 9.45015 7.32355C9.45015 8.73029 9.13822 9.84013 8.52144 10.4763ZM11.2721 1.95106C10.6199 1.32191 9.84007 0.841218 8.92554 0.501903C8.01101 0.169657 7.01849 0 5.948 0H0V21.6667H3.75029V14.6612H6.13941C8.30167 14.6612 10.0386 13.9826 11.3501 12.6183C12.6616 11.261 13.3139 9.4584 13.3139 7.21751C13.3139 6.12887 13.1366 5.13214 12.7822 4.23437C12.4206 3.32953 11.9173 2.56607 11.265 1.94399" fill="#333333"/>
<path d="M51.2508 18.429V0H47.4297V21.6667H59.9114V18.429H51.2508Z" fill="#333333"/>
<path d="M105.671 11.4024L103.218 11.6569L105.291 3.20935H106.059L108.132 11.6569L105.679 11.4024H105.671ZM108.354 0H102.989L97.3574 18.8461V21.6667H100.715L102.522 14.5057L105.679 14.8167L108.835 14.5057L110.643 21.6667H114V18.8461L108.369 0H108.354Z" fill="#333333"/>
<path d="M28.2847 11.4024L25.8314 11.6569L27.9045 3.20935H28.6721L30.7452 11.6569L28.2919 11.4024H28.2847ZM30.9676 0H25.6018L19.9707 18.8461V21.6667H23.3279L25.1356 14.5057L28.2919 14.8167L31.4482 14.5057L33.2559 21.6667H36.613V18.8461L30.9819 0H30.9676Z" fill="#333333"/>
<path d="M83.0676 0L78.1243 8.98477H77.483L72.5397 0H69.0664V21.6667H72.8784V8.03752H73.4837L76.8705 14.0957H78.7368L82.1236 8.03752H82.7289V21.6667H86.5409V0H83.0676Z" fill="#333333"/>
</g>
<defs>
<clipPath id="clip0_5657_399">
<rect width="114" height="22" fill="white"/>
</clipPath>
</defs>
</svg>
