<svg width="454" height="105" viewBox="0 0 454 105" fill="none" xmlns="http://www.w3.org/2000/svg">
<path d="M403.751 0.345642L452.732 36.8826L453.042 37.115V104.812H-137.312V37.115L-88.0218 0.345642L-87.5596 0L-87.0975 0.345642L-38.5801 36.5369L9.93736 0.345642L10.3995 0L59.3791 36.5369L107.897 0.345642L108.359 0L157.338 36.5369L206.319 0L206.781 0.345642L255.554 36.7286H256.095L304.868 0.345642L305.33 0L305.792 0.345642L354.309 36.5369L402.827 0.345642L403.289 0L403.751 0.345642ZM354.309 38.4659L305.33 1.92744L256.812 38.1217L256.607 38.2742H255.042L254.835 38.1217L206.318 1.92744L157.802 38.1217L157.338 38.4659L108.359 1.92744L59.8428 38.1217L59.3791 38.4659L10.3995 1.92744L-38.5801 38.4659L-87.5596 1.92744L-135.766 37.8893V103.267H451.495V37.8893L403.289 1.92744L354.309 38.4659Z" fill="#FFF5EB"/>
</svg>
