<svg width="282" height="112" viewBox="0 0 282 112" fill="none" xmlns="http://www.w3.org/2000/svg">
<path d="M0.817495 0C33.2984 0 60.7661 21.5249 69.7952 51.1335L69.9645 51.6422C71.8478 56.8282 77.5698 59.7558 82.864 58.1261C86.9492 56.8564 91.2985 56.1888 95.7938 56.1888C100.44 56.1888 104.921 56.907 109.121 58.2429C114.665 60.0074 120.646 57.3077 122.42 51.8726V51.871C131.666 23.631 158.148 3.24461 189.413 3.24434C217.353 3.24434 241.503 19.5378 252.9 43.1538C256.063 49.7062 264.596 51.565 269.853 46.6621H269.855C279.924 37.271 293.414 31.5347 308.245 31.5347H309.062V111.083H0V0H0.817495ZM1.63499 109.445H307.428V33.1825C293.348 33.3887 280.561 38.913 270.968 47.8604C264.845 53.5718 255.035 51.3354 251.429 43.8657C240.295 20.7941 216.703 4.8825 189.413 4.8825C159.353 4.88277 133.816 24.1758 124.409 51.0935L123.973 52.3813C121.888 58.7732 114.92 61.8075 108.626 59.8043C104.586 58.5191 100.271 57.8269 95.7938 57.8269C91.4605 57.827 87.2752 58.4705 83.3493 59.6907H83.3461C77.0075 61.6432 70.1781 57.971 68.2321 51.6134L68.2305 51.6118C59.4812 22.9214 33.019 2.00375 1.63499 1.64616V109.445Z" fill="#8A7370"/>
</svg>
